<svg xmlns="http://www.w3.org/2000/svg" aria-hidden="true" style="position:absolute;width:0;height:0;overflow:hidden">
  <defs>
    <symbol id="icon-arrow-square-up" viewBox="0 0 32 32">
      <path d="M16 .592v2.125h12.239c.9 0 1.636.736 1.636 1.636v23.293c0 .9-.736 1.636-1.636 1.636H16v2.125h12.239A3.771 3.771 0 0 0 32 27.646V4.353A3.772 3.772 0 0 0 28.239.592H16zm-12.239 0A3.771 3.771 0 0 0 0 4.353v23.293a3.771 3.771 0 0 0 3.761 3.761H16v-2.125H3.761a1.64 1.64 0 0 1-1.636-1.636V4.353c0-.9.736-1.636 1.636-1.636H16V.592H3.761z"/>
      <path d="M7.905 23.445a1.044 1.044 0 0 0 1.422-.381l6.648-11.513 6.648 11.513c.286.496.926.667 1.422.381.496-.286.667-.926.381-1.422L16.889 8.968a1.04 1.04 0 0 0-.913-.519 1.045 1.045 0 0 0-.913.519L7.526 22.023a1.044 1.044 0 0 0 .381 1.422z"/>
    </symbol>
    <symbol id="icon-arrow-circle-up-orange" viewBox="0 0 32 32">
      <path fill="#ff8e31" d="M32 16c-.01 8.833-7.167 15.99-15.999 16H16a1.6 1.6 0 0 1-1.6-1.6V15.062l-2.069 2.069a1.6 1.6 0 0 1-2.262-2.263l4.8-4.8a1.597 1.597 0 0 1 2.266 0l4.8 4.8a1.6 1.6 0 0 1-2.263 2.262L17.6 15.061v13.638c6.344-.826 11.194-6.196 11.194-12.699 0-7.069-5.731-12.8-12.8-12.8S3.194 8.931 3.194 16c0 5.542 3.522 10.261 8.45 12.042l.089.028a1.6 1.6 0 1 1-1.077 3.014l.011.004C4.399 28.825 0 22.928 0 16.003c0-8.837 7.163-16 16-16 8.835 0 15.997 7.161 16 15.995z" style="fill:var(--color1, #ff8e31)"/>
    </symbol>
    <symbol id="icon-arrow-circle-up-grey" viewBox="0 0 32 32">
      <path d="M32 16c-.01 8.833-7.167 15.99-15.999 16H16a1.6 1.6 0 0 1-1.6-1.6V15.062l-2.069 2.069a1.6 1.6 0 0 1-2.262-2.263l4.8-4.8a1.597 1.597 0 0 1 2.266 0l4.8 4.8a1.6 1.6 0 0 1-2.263 2.262L17.6 15.061v13.638c6.344-.826 11.194-6.196 11.194-12.699 0-7.069-5.731-12.8-12.8-12.8S3.194 8.931 3.194 16c0 5.542 3.522 10.261 8.45 12.042l.089.028a1.6 1.6 0 1 1-1.077 3.014l.011.004C4.399 28.825 0 22.928 0 16.003c0-8.837 7.163-16 16-16 8.835 0 15.997 7.161 16 15.995z"/>
    </symbol>
  </defs>
</svg>
